inDegrees=yes
name=ik_lifting_orientations
DataType=double
version=3
OpenSimVersion=4.5-2024-01-10-34fd6af
endheader
time	pelvis_tilt	pelvis_list	pelvis_rotation	pelvis_tx	pelvis_ty	pelvis_tz	hip_flexion_r	hip_adduction_r	hip_rotation_r	knee_angle_r	knee_angle_r_beta	ankle_angle_r	subtalar_angle_r	mtp_angle_r	hip_flexion_l	hip_adduction_l	hip_rotation_l	knee_angle_l	knee_angle_l_beta	ankle_angle_l	subtalar_angle_l	mtp_angle_l	lumbar_extension	lumbar_bending	lumbar_rotation	arm_flex_r	arm_add_r	arm_rot_r	elbow_flex_r	pro_sup_r	wrist_flex_r	wrist_dev_r	arm_flex_l	arm_add_l	arm_rot_l	elbow_flex_l	pro_sup_l	wrist_flex_l	wrist_dev_l
1.23	2.710283186606023	31.41035659348668	-102.3254584095787	0	0.9399999998679526	0	45.45155777683011	-10.16662748511168	0	60.09300616331481	1.048820814971089	-5.046360712105719	0	0	45.45155777683011	-10.16662748511168	0	60.09300616331481	1.048820814971089	-5.046360712105719	0	0	85.51293997825942	14.92093678407362	6.173496793678626	-48.4140474125598	-4.685906150449354	-1.681004827457998	16.12142599107828	1.306920965995291	0	0	0	-12.35052807935305	0	88.7189418878081	1.306920965995291	0	0
1.24	2.696362719885236	31.22661433651216	-102.3198564610734	0	0.9399999998679526	0	45.45140658999484	-10.16643259474194	0	60.0929817662124	1.048820389161324	-5.046289991330382	0	0	45.45140658999484	-10.16643259474194	0	60.0929817662124	1.048820389161324	-5.046289991330382	0	0	85.24745267742652	14.96499109076822	6.318767716092232	-48.17312978155605	-5.060290548636583	-1.595901126130661	17.11824362198047	1.306616483732539	0	0	0	-12.35098240107296	0	88.71924030178707	1.306616483732539	0	0
1.25	2.625866360998566	31.04139184534995	-102.3083504229441	0	0.9399999998679526	0	45.45127266578474	-10.16626038656882	0	60.09296012220558	1.048820011402141	-5.04622754152454	0	0	45.45127266578474	-10.16626038656882	0	60.09296012220558	1.048820011402141	-5.04622754152454	0	0	84.79961108306556	15.01194624988193	6.492445022512624	-47.72609381951868	-5.469491028934159	-1.482497389254896	18.11228015643967	1.306346593266901	0	0	0	-12.35138532165192	0	88.71950481338432	1.306346593266901	0	0
1.26	2.62375994118886	30.91601512806385	-102.2473742661357	0	0.9399999998679526	0	45.45112658041437	-10.16607249110249	0	60.09293653127038	1.048819599662649	-5.046159412033703	0	0	45.45112658041437	-10.16607249110249	0	60.09293653127038	1.048819599662649	-5.046159412033703	0	0	84.41306908602184	14.97698371282497	6.708596528516011	-47.16242512596106	-5.890673237297923	-1.400024305089886	19.01331231056024	1.306052263323784	0	0	0	-12.35182463063652	0	88.71979327738271	1.306052263323784	0	0
1.27	2.567714116793753	30.73242872207803	-102.0571790769257	0	0.9399999998679526	0	45.45101420311986	-10.16592836920059	0	60.09291835264792	1.048819282385833	-5.046107193945686	0	0	45.45101420311986	-10.16592836920059	0	60.09291835264792	1.048819282385833	-5.046107193945686	0	0	84.02642166464443	14.84733738169824	6.772367580832712	-46.63176711240085	-6.388805911000371	-1.325676720767216	19.94690563139029	1.305825682243072	0	0	0	-12.35216302003253	0	88.7200153427476	1.305825682243072	0	0
1.28	2.565626391895571	30.54933072418455	-101.9944629102773	0	0.9399999998679526	0	45.45090860291859	-10.16579293630264	0	60.09290127758612	1.048818984369785	-5.046058130447486	0	0	45.45090860291859	-10.16579293630264	0	60.09290127758612	1.048818984369785	-5.046058130447486	0	0	83.71016032258652	14.77079918936661	6.833670436021666	-46.01055953322438	-6.934261536012595	-0.9703898204743945	20.71881495850949	1.305612789451641	0	0	0	-12.35248093071939	0	88.72022399262751	1.305612789451641	0	0
1.29	2.565341922582137	30.43312623703491	-101.8063654031209	0	0.9399999998679526	0	45.45081786953133	-10.16567709028716	0	60.09288656357021	1.048818727561761	-5.046016207812866	0	0	45.45081786953133	-10.16567709028716	0	60.09288656357021	1.048818727561761	-5.046016207812866	0	0	83.28657611640119	14.60778245522178	6.891272721217892	-45.23472301411271	-7.495444886717142	-0.7303549939287785	21.45116080194322	1.30542965022251	0	0	0	-12.35275467813592	0	88.72040348193516	1.30542965022251	0	0
1.3	2.599212044737742	30.24225998900641	-101.6108001453727	0	0.9399999998679526	0	45.4506868600891	-10.16550950304922	0	60.09286535721373	1.048818357441018	-5.045955545325714	0	0	45.4506868600891	-10.16550950304922	0	60.09286535721373	1.048818357441018	-5.045955545325714	0	0	82.69877143028239	14.39275107162286	7.001013939045614	-44.34034953111244	-8.024022195521477	-0.4001438592034817	22.26032192629465	1.30516539202713	0	0	0	-12.35314945134934	0	88.72066247352177	1.30516539202713	0	0
1.31	2.541071076318014	29.99052952399156	-101.297485299125	0	0.9399999998679526	0	45.45054206766659	-10.16532428311891	0	60.09284193025404	1.048817948563438	-5.045888509897337	0	0	45.45054206766659	-10.16532428311891	0	60.09284193025404	1.048817948563438	-5.045888509897337	0	0	82.06421346452734	14.06822769187577	7.001081200366804	-43.39914388694062	-8.609724988089589	0.01112577680008766	22.99989878806726	1.304873364735905	0	0	0	-12.35358566065551	0	88.72094868077137	1.304873364735905	0	0
1.32	2.585701804922384	29.67527555431511	-101.1033969610319	0	0.9399999998679526	0	45.45041073134492	-10.16515674906692	0	60.09282064253902	1.04881757702272	-5.045827917862559	0	0	45.45041073134492	-10.16515674906692	0	60.09282064253902	1.04881757702272	-5.045827917862559	0	0	81.2921321001035	13.83945519234809	7.018064302702744	-42.47790016696666	-9.304750641042876	0.294254859815292	23.68359111773894	1.304608277463846	0	0	0	-12.35398187498253	0	88.7212084849178	1.304608277463846	0	0
1.33	2.539707936097502	29.30577074225668	-100.7959237598128	0	0.9399999998679526	0	45.45030791143997	-10.1650256842373	0	60.09280397211764	1.04881728606898	-5.045780526684822	0	0	45.45030791143997	-10.1650256842373	0	60.09280397211764	1.04881728606898	-5.045780526684822	0	0	80.67222275270386	13.5302938438938	6.951589217424593	-41.82947866643894	-9.971337732621748	0.4756510142881707	24.46791364100165	1.3044007151094	0	0	0	-12.35429214787187	0	88.72141191060572	1.3044007151094	0	0
1.34	2.403067070558679	28.87909531827586	-100.3878275834867	0	0.9399999998679526	0	45.45011280316265	-10.16477848763712	0	60.09277219799124	1.048816731505857	-5.045691261313163	0	0	45.45011280316265	-10.16477848763712	0	60.09277219799124	1.048816731505857	-5.045691261313163	0	0	79.3488540217099	13.19371632897129	6.751497567231875	-40.52121995359812	-10.71623655893325	0.6254271034336625	24.72683892361657	1.304006148641212	0	0	0	-12.35488284718057	0	88.72179861348593	1.304006148641212	0	0
1.35	2.329336719259041	28.50035166749868	-100.145366006516	0	0.9399999998679526	0	45.44997906058117	-10.16460860770975	0	60.09275047257857	1.048816352325874	-5.045629895913646	0	0	45.44997906058117	-10.16460860770975	0	60.09275047257857	1.048816352325874	-5.045629895913646	0	0	78.40952595336879	12.9759706647443	6.628479849588256	-39.73508280360615	-11.39743892159091	0.7002126152238483	25.19256282777046	1.303735927420465	0	0	0	-12.35528707219863	0	88.72206344927321	1.303735927420465	0	0
1.36	2.240631346846127	27.97093989666939	-99.79174878420925	0	0.9399999998679526	0	45.44985647880245	-10.16445245707599	0	60.09273061887939	1.048816005813455	-5.045573470624759	0	0	45.44985647880245	-10.16445245707599	0	60.09273061887939	1.048816005813455	-5.045573470624759	0	0	77.61784363395536	12.67375025405991	6.554890434684275	-39.25263405940262	-12.24066026432191	0.7736242984099631	26.22356400640102	1.303488520289287	0	0	0	-12.35565682231934	0	88.72230592564061	1.303488520289287	0	0
1.37	2.146525939615951	27.45590961629237	-99.42773328260775	0	0.9399999998679526	0	45.4497522710796	-10.16432040896667	0	60.09271367566343	1.048815710098551	-5.045525808622692	0	0	45.4497522710796	-10.16432040896667	0	60.09271367566343	1.048815710098551	-5.045525808622692	0	0	76.40520515558701	12.36884349963572	6.456582332359642	-38.54550029917998	-13.33825940731835	0.6973873581371333	27.52620927989433	1.303277872722028	0	0	0	-12.35597204465321	0	88.72251237506451	1.303277872722028	0	0
1.38	1.952699609816218	26.76926315223051	-98.90271888851071	0	0.9399999998679526	0	45.44927213690882	-10.16371251111562	0	60.09263589075691	1.048814352495824	-5.045306715610305	0	0	45.44927213690882	-10.16371251111562	0	60.09263589075691	1.048814352495824	-5.045306715610305	0	0	74.77316753932766	11.9909753209701	6.353298780366854	-37.56475667388254	-14.31518473904175	0.7460639299860328	28.76052841416654	1.302308321946033	0	0	0	-12.35742126461606	0	88.72346260294543	1.302308321946033	0	0
